<svg width="24" height="24" viewBox="0 0 24 24" fill="none" xmlns="http://www.w3.org/2000/svg">
<path d="M4.59257 18.75C4.19006 18.7488 3.81381 18.5925 3.53131 18.3075C3.24881 18.0225 3.0938 17.6463 3.09505 17.2463C3.0963 16.9813 3.16755 16.72 3.30131 16.4912C3.85631 15.5362 4.52007 13.7188 4.52007 10.5V9.75125C4.51381 5.62125 7.86884 2.25625 11.9989 2.25H12.0539C16.1514 2.28 19.4814 5.6825 19.4814 9.835V10.5C19.4814 13.7188 20.1452 15.5363 20.7014 16.4937C20.9027 16.8375 20.9589 17.2413 20.8577 17.6288C20.7564 18.0163 20.5102 18.3413 20.1639 18.5438C19.9352 18.6775 19.6739 18.7488 19.4102 18.75H4.59257ZM12.0001 3.75C8.6976 3.755 6.01383 6.44625 6.01883 9.74875V9.75V10.5C6.01883 14.0538 5.24507 16.1312 4.59507 17.2475L19.4077 17.25C18.7552 16.1313 17.9814 14.0538 17.9814 10.5V9.835C17.9814 6.50375 15.3189 3.775 12.0451 3.75H12.0001Z" fill="#53B9EE"/>
<path d="M12.0001 22.5C9.93257 22.5 8.25006 20.8175 8.25006 18.75V18C8.25006 17.5863 8.58631 17.25 9.00007 17.25C9.41382 17.25 9.75007 17.5863 9.75007 18V18.75C9.75007 19.9913 10.7588 21 12.0001 21C13.2413 21 14.2501 19.9913 14.2501 18.75V18C14.2501 17.5863 14.5864 17.25 15.0001 17.25C15.4139 17.25 15.7501 17.5863 15.7501 18V18.75C15.7501 20.8175 14.0676 22.5 12.0001 22.5Z" fill="#53B9EE"/>
</svg>
