<svg width="24" height="24" viewBox="0 0 24 24" fill="none" xmlns="http://www.w3.org/2000/svg">
<path d="M19.3764 6.15281C17.4592 5.19469 14.9064 4.6875 12.0001 4.6875C9.09382 4.6875 6.54099 5.19469 4.62379 6.15281C2.75721 7.08562 1.68752 8.39719 1.68752 9.75V14.25C1.68752 15.6028 2.75721 16.9144 4.62379 17.8472C6.54099 18.8053 9.09382 19.3125 12.0001 19.3125C14.9064 19.3125 17.4592 18.8053 19.3764 17.8472C21.243 16.9144 22.3127 15.6028 22.3127 14.25V9.75C22.3127 8.39719 21.243 7.08562 19.3764 6.15281ZM5.12629 7.15969C6.86349 6.29063 9.30476 5.8125 12.0001 5.8125C14.6954 5.8125 17.1367 6.29063 18.8739 7.15969C20.3439 7.89469 21.1877 8.83875 21.1877 9.75C21.1877 10.6613 20.3439 11.6053 18.8739 12.3403C17.1367 13.2094 14.6954 13.6875 12.0001 13.6875C9.30476 13.6875 6.86349 13.2094 5.12629 12.3403C3.65628 11.6053 2.81252 10.6613 2.81252 9.75C2.81252 8.83875 3.65628 7.89469 5.12629 7.15969ZM11.4376 14.8059V18.1809C9.63382 18.1359 7.96225 17.8734 6.56255 17.4206V14.1019C7.99412 14.5247 9.64226 14.7647 11.4376 14.8059ZM12.5626 14.8059C14.3579 14.7647 16.0061 14.5247 17.4376 14.1009V17.4197C16.0379 17.8725 14.3664 18.135 12.5626 18.18V14.8059ZM2.81252 14.25V12.0938C3.34772 12.6026 3.95877 13.0251 4.62379 13.3463C4.88379 13.4756 5.15504 13.5969 5.43754 13.71V16.9913C5.3316 16.9425 5.22754 16.8975 5.12629 16.8431C3.65628 16.1053 2.81252 15.1613 2.81252 14.25ZM18.8739 16.8403C18.7726 16.8909 18.6686 16.9397 18.5626 16.9884V13.7072C18.8445 13.5941 19.1158 13.4728 19.3764 13.3434C20.0412 13.0232 20.6523 12.6016 21.1877 12.0938V14.25C21.1877 15.1613 20.3439 16.1053 18.8739 16.8403Z" fill="#53B9EE"/>
</svg>
