<svg width="24" height="24" viewBox="0 0 24 24" fill="none" xmlns="http://www.w3.org/2000/svg">
<path d="M12.0001 21.75C6.62417 21.75 2.25002 17.3759 2.25002 12C2.25002 6.62412 6.62417 2.25 12.0001 2.25C17.376 2.25 21.7502 6.62412 21.7502 12C21.7502 17.3759 17.376 21.75 12.0001 21.75ZM12.0001 3.39706C7.25633 3.39706 3.39708 7.25627 3.39708 12C3.39708 16.7437 7.25633 20.6029 12.0001 20.6029C16.7438 20.6029 20.6031 16.7437 20.6031 12C20.6031 7.25627 16.7438 3.39706 12.0001 3.39706Z" fill="#53B9EE"/>
<path d="M12 17.9264C12.5279 17.9264 12.9559 17.4984 12.9559 16.9705C12.9559 16.4426 12.5279 16.0146 12 16.0146C11.472 16.0146 11.0441 16.4426 11.0441 16.9705C11.0441 17.4984 11.472 17.9264 12 17.9264Z" fill="#53B9EE"/>
<path d="M12.0001 14.1031C11.6828 14.1031 11.4266 13.8469 11.4266 13.5296V12.7648C11.4266 12.4475 11.6828 12.1913 12.0001 12.1913C13.16 12.1913 14.1031 11.2482 14.1031 10.0884C14.1031 8.92857 13.16 7.98544 12.0001 7.98544C10.8403 7.98544 9.89719 8.92985 9.89719 10.0884C9.89719 10.4057 9.64101 10.6619 9.32366 10.6619C9.0063 10.6619 8.75012 10.4057 8.75012 10.0884C8.75012 8.29642 10.2082 6.83838 12.0001 6.83838C13.7921 6.83838 15.2502 8.29642 15.2502 10.0884C15.2502 11.6853 14.0929 13.0159 12.5737 13.2874V13.5296C12.5737 13.8469 12.3175 14.1031 12.0001 14.1031Z" fill="#53B9EE"/>
</svg>
