<svg width="32" height="32" viewBox="0 0 32 32" fill="none" xmlns="http://www.w3.org/2000/svg">
<path fill-rule="evenodd" clip-rule="evenodd" d="M10 8.75C7.65279 8.75 5.75 10.6528 5.75 13C5.75 15.3472 7.65279 17.25 10 17.25C12.3472 17.25 14.25 15.3472 14.25 13C14.25 10.6528 12.3472 8.75 10 8.75ZM4.25 13C4.25 9.82436 6.82436 7.25 10 7.25C13.1756 7.25 15.75 9.82436 15.75 13C15.75 16.1756 13.1756 18.75 10 18.75C6.82436 18.75 4.25 16.1756 4.25 13Z" fill="#575757"/>
<path fill-rule="evenodd" clip-rule="evenodd" d="M18.25 10C18.25 9.58579 18.5858 9.25 19 9.25H31C31.4142 9.25 31.75 9.58579 31.75 10C31.75 10.4142 31.4142 10.75 31 10.75H19C18.5858 10.75 18.25 10.4142 18.25 10Z" fill="#575757"/>
<path fill-rule="evenodd" clip-rule="evenodd" d="M18.25 16C18.25 15.5858 18.5858 15.25 19 15.25H31C31.4142 15.25 31.75 15.5858 31.75 16C31.75 16.4142 31.4142 16.75 31 16.75H19C18.5858 16.75 18.25 16.4142 18.25 16Z" fill="#575757"/>
<path fill-rule="evenodd" clip-rule="evenodd" d="M21.25 22C21.25 21.5858 21.5858 21.25 22 21.25H31C31.4142 21.25 31.75 21.5858 31.75 22C31.75 22.4142 31.4142 22.75 31 22.75H22C21.5858 22.75 21.25 22.4142 21.25 22Z" fill="#575757"/>
<path fill-rule="evenodd" clip-rule="evenodd" d="M10 18.7344C8.39019 18.7344 6.82616 19.2702 5.5545 20.2572C4.28283 21.2443 3.37586 22.6266 2.97656 24.1861C2.87382 24.5874 2.46524 24.8294 2.06397 24.7266C1.6627 24.6239 1.42069 24.2153 1.52343 23.814C2.00534 21.9319 3.09997 20.2636 4.63474 19.0723C6.16951 17.881 8.05712 17.2344 10 17.2344C11.9429 17.2344 13.8305 17.881 15.3653 19.0723C16.9 20.2636 17.9947 21.9319 18.4766 23.814C18.5793 24.2153 18.3373 24.6239 17.936 24.7266C17.5348 24.8294 17.1262 24.5874 17.0234 24.1861C16.6241 22.6266 15.7172 21.2443 14.4455 20.2572C13.1738 19.2702 11.6098 18.7344 10 18.7344Z" fill="#575757"/>
</svg>
