<svg width="28" height="28" viewBox="0 0 28 28" fill="none" xmlns="http://www.w3.org/2000/svg">
<path fill-rule="evenodd" clip-rule="evenodd" d="M20.5414 5.20877C20.0369 4.99989 19.4963 4.89245 18.9503 4.89258C18.4043 4.89271 17.8638 5.0004 17.3594 5.20951C16.8551 5.41862 16.3969 5.72505 16.011 6.11128L16.0108 6.1115L13.8453 8.27702C13.589 8.5333 13.1735 8.5333 12.9172 8.27702C12.6609 8.02073 12.6609 7.60522 12.9172 7.34894L15.0825 5.18364C15.0825 5.1836 15.0826 5.18356 15.0826 5.18352C15.0826 5.18349 15.0827 5.18346 15.0827 5.18342C15.5904 4.67532 16.1932 4.2722 16.8567 3.99709C17.5203 3.72195 18.2316 3.58025 18.95 3.58008C19.6684 3.57991 20.3798 3.72128 21.0435 3.99612C21.7072 4.27095 22.3103 4.67387 22.8183 5.18184C23.3262 5.68981 23.7292 6.29289 24.004 6.95662C24.2788 7.62035 24.4202 8.33172 24.42 9.0501C24.4199 9.76848 24.2782 10.4798 24.003 11.1434C23.7279 11.8069 23.3248 12.4097 22.8167 12.9174C22.8166 12.9175 22.8165 12.9175 22.8165 12.9176L19.7231 16.011C19.2153 16.5188 18.6124 16.9216 17.9489 17.1965C17.2854 17.4713 16.5743 17.6128 15.8561 17.6128C15.1379 17.6128 14.4268 17.4713 13.7633 17.1965C13.0998 16.9216 12.4969 16.5188 11.9891 16.011C11.7328 15.7547 11.7328 15.3392 11.9891 15.0829C12.2454 14.8266 12.6609 14.8266 12.9172 15.0829C13.3031 15.4689 13.7613 15.775 14.2656 15.9839C14.7698 16.1927 15.3103 16.3003 15.8561 16.3003C16.4019 16.3003 16.9424 16.1927 17.4466 15.9839C17.9509 15.775 18.4091 15.4689 18.795 15.0829L21.8886 11.9893L21.8888 11.9891C22.2751 11.6032 22.5815 11.145 22.7906 10.6407C22.9997 10.1364 23.1074 9.59577 23.1075 9.0498C23.1077 8.50383 23.0002 7.96318 22.7913 7.45875C22.5825 6.95431 22.2763 6.49597 21.8902 6.10992C21.5041 5.72386 21.0458 5.41764 20.5414 5.20877Z" fill="#241E17"/>
<path fill-rule="evenodd" clip-rule="evenodd" d="M12.1438 11.7002C11.598 11.7002 11.0576 11.8077 10.5533 12.0166C10.049 12.2254 9.59085 12.5316 9.20491 12.9175L6.11132 16.0111C5.72508 16.397 5.41844 16.8554 5.20933 17.3598C5.00022 17.8641 4.89252 18.4047 4.8924 18.9507C4.89227 19.4966 4.99971 20.0373 5.20859 20.5417C5.41746 21.0461 5.72367 21.5045 6.10973 21.8905C6.49579 22.2766 6.95413 22.5828 7.45856 22.7917C7.963 23.0006 8.50364 23.108 9.04961 23.1079C9.59558 23.1077 10.1362 23.0001 10.6405 22.7909C11.1448 22.5818 11.603 22.2754 11.9889 21.8892L14.1547 19.7234C14.4109 19.4672 14.8265 19.4672 15.0827 19.7234C15.339 19.9797 15.339 20.3952 15.0827 20.6515L12.9174 22.8168C12.9174 22.8169 12.9175 22.8167 12.9174 22.8168C12.4097 23.3249 11.8067 23.7283 11.1432 24.0034C10.4796 24.2785 9.7683 24.4202 9.04992 24.4204C8.33154 24.4205 7.62016 24.2792 6.95643 24.0043C6.2927 23.7295 5.68963 23.3266 5.18165 22.8186C4.67368 22.3106 4.27077 21.7076 3.99594 21.0438C3.7211 20.3801 3.57973 19.6687 3.5799 18.9503C3.58006 18.232 3.72177 17.5207 3.99691 16.8571C4.27202 16.1936 4.67513 15.5907 5.18324 15.083C5.18317 15.0831 5.18331 15.083 5.18324 15.083L8.27683 11.9895C8.78465 11.4816 9.38752 11.0788 10.051 10.804C10.7145 10.5291 11.4257 10.3877 12.1438 10.3877C12.862 10.3877 13.5731 10.5291 14.2366 10.804C14.9001 11.0788 15.503 11.4816 16.0108 11.9895C16.2671 12.2457 16.2671 12.6613 16.0108 12.9175C15.7545 13.1738 15.339 13.1738 15.0827 12.9175C14.6968 12.5316 14.2386 12.2254 13.7343 12.0166C13.2301 11.8077 12.6896 11.7002 12.1438 11.7002Z" fill="#241E17"/>
</svg>
