<svg width="24" height="24" viewBox="0 0 24 24" fill="none" xmlns="http://www.w3.org/2000/svg">
<path fill-rule="evenodd" clip-rule="evenodd" d="M18.1876 12.75C18.1876 12.4393 18.4395 12.1875 18.7501 12.1875H23.2502C23.5608 12.1875 23.8127 12.4393 23.8127 12.75C23.8127 13.0607 23.5608 13.3125 23.2502 13.3125H18.7501C18.4395 13.3125 18.1876 13.0607 18.1876 12.75Z" fill="#53B9EE"/>
<path fill-rule="evenodd" clip-rule="evenodd" d="M21.0002 9.9375C21.3108 9.9375 21.5627 10.1893 21.5627 10.5V15C21.5627 15.3107 21.3108 15.5625 21.0002 15.5625C20.6895 15.5625 20.4377 15.3107 20.4377 15V10.5C20.4377 10.1893 20.6895 9.9375 21.0002 9.9375Z" fill="#53B9EE"/>
<path fill-rule="evenodd" clip-rule="evenodd" d="M10.1251 4.3125C7.32911 4.3125 5.06254 6.57906 5.06254 9.375C5.06254 12.1709 7.32911 14.4375 10.1251 14.4375C12.921 14.4375 15.1876 12.1709 15.1876 9.375C15.1876 6.57906 12.921 4.3125 10.1251 4.3125ZM3.93753 9.375C3.93753 5.95774 6.70779 3.1875 10.1251 3.1875C13.5424 3.1875 16.3126 5.95774 16.3126 9.375C16.3126 12.7923 13.5424 15.5625 10.1251 15.5625C6.70779 15.5625 3.93753 12.7923 3.93753 9.375Z" fill="#53B9EE"/>
<path fill-rule="evenodd" clip-rule="evenodd" d="M10.1251 15.5625C8.67413 15.5625 7.24075 15.8802 5.92567 16.4933C4.61058 17.1064 3.4457 18.0001 2.51287 19.1114C2.31314 19.3494 1.95834 19.3804 1.72038 19.1806C1.48243 18.9809 1.45144 18.6261 1.65117 18.3882C2.6896 17.151 3.98634 16.1562 5.45029 15.4737C6.91424 14.7912 8.50989 14.4375 10.1251 14.4375C11.7404 14.4375 13.336 14.7912 14.7999 15.4737C16.2639 16.1562 17.5606 17.151 18.599 18.3882C18.7988 18.6262 18.7678 18.981 18.5298 19.1807C18.2919 19.3804 17.9371 19.3494 17.7373 19.1115C16.8045 18.0001 15.6396 17.1065 14.3246 16.4933C13.0095 15.8802 11.5761 15.5625 10.1251 15.5625Z" fill="#53B9EE"/>
</svg>
