<svg width="32" height="32" viewBox="0 0 32 32" fill="none" xmlns="http://www.w3.org/2000/svg">
<path d="M28.6399 17.8314C28.2975 17.5676 27.8988 17.3866 27.4748 17.3025C27.0509 17.2184 26.6133 17.2334 26.1961 17.3464L25.6561 17.4714C28.3749 14.9439 29.7499 12.4389 29.7499 10.0001C29.7499 6.83011 27.2011 4.25011 24.0674 4.25011C23.1836 4.24457 22.3107 4.44503 21.5179 4.83558C20.725 5.22614 20.0341 5.79605 19.4999 6.50011C18.9657 5.79605 18.2747 5.22614 17.4819 4.83558C16.6891 4.44503 15.8162 4.24457 14.9324 4.25011C11.7986 4.25011 9.24988 6.83011 9.24988 10.0001C9.24988 11.4226 9.70363 12.8114 10.6611 14.2951C9.87626 14.4162 9.15081 14.7855 8.59113 15.3489L5.68988 18.2501H1.99988C1.53575 18.2501 1.09063 18.4345 0.762441 18.7627C0.434252 19.0909 0.249878 19.536 0.249878 20.0001V25.0001C0.249878 25.4642 0.434252 25.9094 0.762441 26.2375C1.09063 26.5657 1.53575 26.7501 1.99988 26.7501H14.9999C15.0614 26.7501 15.1227 26.7426 15.1824 26.7276L23.1824 24.7276C23.2202 24.7176 23.2574 24.705 23.2936 24.6901L28.1461 22.6251L28.1874 22.6064C28.6164 22.3921 28.9839 22.0721 29.2551 21.6766C29.5263 21.2811 29.6923 20.8231 29.7376 20.3456C29.7829 19.8682 29.7059 19.3871 29.5138 18.9477C29.3218 18.5083 29.021 18.1249 28.6399 17.8339V17.8314ZM14.9324 5.75011C15.7572 5.73911 16.5666 5.97446 17.2569 6.42606C17.9472 6.87765 18.487 7.52495 18.8074 8.28511C18.8639 8.42267 18.96 8.54032 19.0835 8.62313C19.2071 8.70593 19.3524 8.75014 19.5011 8.75014C19.6498 8.75014 19.7952 8.70593 19.9187 8.62313C20.0422 8.54032 20.1384 8.42267 20.1949 8.28511C20.5152 7.52495 21.0551 6.87765 21.7454 6.42606C22.4357 5.97446 23.245 5.73911 24.0699 5.75011C26.3349 5.75011 28.2499 7.69636 28.2499 10.0001C28.2499 12.5301 26.2274 15.3751 22.3999 18.2189L20.5411 18.6464C20.7265 18.1545 20.7898 17.6251 20.7257 17.1034C20.6615 16.5817 20.4718 16.0834 20.1728 15.6511C19.8737 15.2189 19.4743 14.8656 19.0088 14.6216C18.5433 14.3776 18.0255 14.2501 17.4999 14.2501H12.4586C11.2949 12.7089 10.7499 11.3514 10.7499 10.0001C10.7499 7.69636 12.6649 5.75011 14.9324 5.75011ZM1.74988 25.0001V20.0001C1.74988 19.9338 1.77622 19.8702 1.8231 19.8233C1.86999 19.7765 1.93357 19.7501 1.99988 19.7501H5.24988V25.2501H1.99988C1.93357 25.2501 1.86999 25.2238 1.8231 25.1769C1.77622 25.13 1.74988 25.0664 1.74988 25.0001ZM27.5349 21.2501L22.7599 23.2839L14.9074 25.2501H6.74988V19.3114L9.65113 16.4089C9.85962 16.1993 10.1076 16.0331 10.3808 15.9201C10.6539 15.807 10.9468 15.7492 11.2424 15.7501H17.4999C17.964 15.7501 18.4091 15.9345 18.7373 16.2627C19.0655 16.5909 19.2499 17.036 19.2499 17.5001C19.2499 17.9642 19.0655 18.4094 18.7373 18.7375C18.4091 19.0657 17.964 19.2501 17.4999 19.2501H13.9999C13.801 19.2501 13.6102 19.3291 13.4695 19.4698C13.3289 19.6104 13.2499 19.8012 13.2499 20.0001C13.2499 20.199 13.3289 20.3898 13.4695 20.5304C13.6102 20.6711 13.801 20.7501 13.9999 20.7501H17.9999C18.0562 20.7502 18.1124 20.7439 18.1674 20.7314L26.5424 18.8051L26.5724 18.7976C26.8876 18.7117 27.2234 18.7452 27.5154 18.8918C27.8074 19.0384 28.0349 19.2878 28.1543 19.5919C28.2737 19.896 28.2764 20.2336 28.1621 20.5396C28.0478 20.8457 27.8244 21.0987 27.5349 21.2501Z" fill="#575757"/>
</svg>
