<svg width="33" height="32" viewBox="0 0 33 32" fill="none" xmlns="http://www.w3.org/2000/svg">
<path fill-rule="evenodd" clip-rule="evenodd" d="M9.49842 5.75C9.43211 5.75 9.36852 5.77634 9.32164 5.82322C9.27476 5.87011 9.24842 5.9337 9.24842 6V26.6467L16.1 22.364C16.3432 22.212 16.6517 22.212 16.895 22.364L23.7484 26.6469V6C23.7484 5.93369 23.7221 5.87011 23.6752 5.82322C23.6283 5.77634 23.5647 5.75 23.4984 5.75H9.49842ZM8.26098 4.76256C8.58917 4.43438 9.03429 4.25 9.49842 4.25H23.4984C23.9625 4.25 24.4077 4.43437 24.7359 4.76256C25.064 5.09075 25.2484 5.53587 25.2484 6V28C25.2484 28.2726 25.1005 28.5238 24.862 28.656C24.6236 28.7881 24.3322 28.7805 24.101 28.636L16.4975 23.8844L8.89595 28.636C8.66475 28.7805 8.37333 28.7882 8.13486 28.656C7.89638 28.5238 7.74842 28.2727 7.74842 28V6C7.74842 5.53587 7.93279 5.09075 8.26098 4.76256Z" fill="#575757"/>
</svg>
