<svg width="20" height="20" viewBox="0 0 20 20" fill="none" xmlns="http://www.w3.org/2000/svg">
<path opacity="0.6" d="M14.5833 9.16667C14.5833 10.0732 14.3145 10.9593 13.8109 11.713C13.3073 12.4668 12.5915 13.0542 11.754 13.4011C10.9165 13.748 9.99492 13.8388 9.10584 13.6619C8.21676 13.4851 7.40008 13.0486 6.75909 12.4076C6.1181 11.7666 5.68158 10.9499 5.50473 10.0608C5.32789 9.17175 5.41865 8.2502 5.76555 7.4127C6.11245 6.57521 6.69991 5.85939 7.45364 5.35576C8.20736 4.85214 9.0935 4.58333 10 4.58333C11.2156 4.58333 12.3814 5.06622 13.2409 5.92576C14.1004 6.7853 14.5833 7.95109 14.5833 9.16667ZM20 1.66667V18.3333C20 18.7754 19.8244 19.1993 19.5118 19.5118C19.1993 19.8244 18.7754 20 18.3333 20H1.66667C1.22464 20 0.800716 19.8244 0.488155 19.5118C0.175595 19.1993 0 18.7754 0 18.3333V1.66667C0 1.22464 0.175595 0.800716 0.488155 0.488155C0.800716 0.175595 1.22464 0 1.66667 0H18.3333C18.7754 0 19.1993 0.175595 19.5118 0.488155C19.8244 0.800716 20 1.22464 20 1.66667ZM18.3333 18.3333V1.66667H1.66667V18.3333H2.04896C2.545 16.7682 3.48917 15.3829 4.76458 14.349C4.97847 14.1767 5.19931 14.0163 5.42708 13.8677C5.50297 13.8182 5.59295 13.7947 5.68336 13.8009C5.77378 13.8071 5.85971 13.8426 5.92813 13.9021C7.0598 14.879 8.50498 15.4165 10 15.4165C11.495 15.4165 12.9402 14.879 14.0719 13.9021C14.1403 13.8426 14.2262 13.8071 14.3166 13.8009C14.4071 13.7947 14.497 13.8182 14.5729 13.8677C14.8007 14.017 15.0215 14.1774 15.2354 14.349C16.5108 15.3829 17.455 16.7682 17.951 18.3333H18.3333Z" fill="#469946"/>
</svg>
