<svg width="17" height="20" viewBox="0 0 17 20" fill="none" xmlns="http://www.w3.org/2000/svg">
<path opacity="0.6" d="M14.8149 1.48136H11.4575C11.0413 1.01536 10.5313 0.642516 9.96106 0.387237C9.39078 0.131959 8.77301 0 8.1482 0C7.52339 0 6.90563 0.131959 6.33535 0.387237C5.76507 0.642516 5.25513 1.01536 4.83892 1.48136H1.48149C1.08858 1.48136 0.711752 1.63744 0.433919 1.91528C0.156085 2.19311 0 2.56993 0 2.96285V18.5185C0 18.9114 0.156085 19.2882 0.433919 19.5661C0.711752 19.8439 1.08858 20 1.48149 20H14.8149C15.2078 20 15.5847 19.8439 15.8625 19.5661C16.1403 19.2882 16.2964 18.9114 16.2964 18.5185V2.96285C16.2964 2.56993 16.1403 2.19311 15.8625 1.91528C15.5847 1.63744 15.2078 1.48136 14.8149 1.48136ZM8.1482 1.48136C8.93403 1.48136 9.68768 1.79353 10.2433 2.34919C10.799 2.90486 11.1112 3.65851 11.1112 4.44434H5.18522C5.18522 3.65851 5.49739 2.90486 6.05306 2.34919C6.60872 1.79353 7.36237 1.48136 8.1482 1.48136ZM11.1112 13.3333H5.18522C4.98876 13.3333 4.80035 13.2552 4.66143 13.1163C4.52252 12.9774 4.44447 12.789 4.44447 12.5925C4.44447 12.3961 4.52252 12.2077 4.66143 12.0688C4.80035 11.9298 4.98876 11.8518 5.18522 11.8518H11.1112C11.3076 11.8518 11.4961 11.9298 11.635 12.0688C11.7739 12.2077 11.8519 12.3961 11.8519 12.5925C11.8519 12.789 11.7739 12.9774 11.635 13.1163C11.4961 13.2552 11.3076 13.3333 11.1112 13.3333ZM11.1112 10.3703H5.18522C4.98876 10.3703 4.80035 10.2923 4.66143 10.1533C4.52252 10.0144 4.44447 9.82602 4.44447 9.62956C4.44447 9.4331 4.52252 9.24469 4.66143 9.10577C4.80035 8.96686 4.98876 8.88881 5.18522 8.88881H11.1112C11.3076 8.88881 11.4961 8.96686 11.635 9.10577C11.7739 9.24469 11.8519 9.4331 11.8519 9.62956C11.8519 9.82602 11.7739 10.0144 11.635 10.1533C11.4961 10.2923 11.3076 10.3703 11.1112 10.3703Z" fill="#469946"/>
</svg>
