<svg width="30" height="30" viewBox="0 0 30 30" fill="none" xmlns="http://www.w3.org/2000/svg">
<path d="M18.6457 16.6559C19.3845 16.0898 19.9275 15.3065 20.1981 14.416C20.4688 13.5255 20.4537 12.5725 20.1548 11.6911C19.856 10.8096 19.2885 10.044 18.532 9.50168C17.7756 8.9594 16.8682 8.66777 15.9375 8.66777C15.0068 8.66777 14.0994 8.9594 13.343 9.50168C12.5865 10.044 12.019 10.8096 11.7202 11.6911C11.4213 12.5725 11.4062 13.5255 11.6769 14.416C11.9476 15.3065 12.4905 16.0898 13.2293 16.6559C11.843 17.1736 10.6351 18.0796 9.75 19.2656C9.63811 19.4148 9.59007 19.6023 9.61644 19.7869C9.64281 19.9715 9.74144 20.1381 9.89062 20.25C10.0398 20.3619 10.2273 20.4099 10.4119 20.3836C10.5965 20.3572 10.7631 20.2586 10.875 20.1094C11.4644 19.3234 12.2288 18.6855 13.1075 18.2462C13.9862 17.8069 14.9551 17.5781 15.9375 17.5781C16.9199 17.5781 17.8888 17.8069 18.7675 18.2462C19.6462 18.6855 20.4106 19.3234 21 20.1094C21.1119 20.2586 21.2785 20.3572 21.4631 20.3836C21.6477 20.4099 21.8352 20.3619 21.9844 20.25C22.1336 20.1381 22.2322 19.9715 22.2586 19.7869C22.2849 19.6023 22.2369 19.4148 22.125 19.2656C21.2399 18.0796 20.032 17.1736 18.6457 16.6559ZM12.8906 13.125C12.8906 12.5224 13.0693 11.9333 13.4041 11.4322C13.7389 10.9312 14.2148 10.5407 14.7715 10.3101C15.3283 10.0794 15.9409 10.0191 16.5319 10.1367C17.123 10.2542 17.6659 10.5444 18.092 10.9705C18.5181 11.3966 18.8083 11.9395 18.9258 12.5306C19.0434 13.1216 18.9831 13.7342 18.7524 14.291C18.5218 14.8477 18.1313 15.3236 17.6303 15.6584C17.1292 15.9932 16.5401 16.1719 15.9375 16.1719C15.1294 16.1719 14.3544 15.8509 13.783 15.2795C13.2116 14.7081 12.8906 13.9331 12.8906 13.125ZM24.375 3.04688H7.5C7.06488 3.04688 6.64758 3.21973 6.3399 3.5274C6.03223 3.83508 5.85938 4.25238 5.85938 4.6875V7.73438H3.75C3.56352 7.73438 3.38468 7.80845 3.25282 7.94032C3.12095 8.07218 3.04688 8.25102 3.04688 8.4375C3.04688 8.62398 3.12095 8.80282 3.25282 8.93468C3.38468 9.06655 3.56352 9.14062 3.75 9.14062H5.85938V14.2969H3.75C3.56352 14.2969 3.38468 14.371 3.25282 14.5028C3.12095 14.6347 3.04688 14.8135 3.04688 15C3.04688 15.1865 3.12095 15.3653 3.25282 15.4972C3.38468 15.629 3.56352 15.7031 3.75 15.7031H5.85938V20.8594H3.75C3.56352 20.8594 3.38468 20.9335 3.25282 21.0653C3.12095 21.1972 3.04688 21.376 3.04688 21.5625C3.04688 21.749 3.12095 21.9278 3.25282 22.0597C3.38468 22.1915 3.56352 22.2656 3.75 22.2656H5.85938V25.3125C5.85938 25.7476 6.03223 26.1649 6.3399 26.4726C6.64758 26.7803 7.06488 26.9531 7.5 26.9531H24.375C24.8101 26.9531 25.2274 26.7803 25.5351 26.4726C25.8428 26.1649 26.0156 25.7476 26.0156 25.3125V4.6875C26.0156 4.25238 25.8428 3.83508 25.5351 3.5274C25.2274 3.21973 24.8101 3.04688 24.375 3.04688ZM24.6094 25.3125C24.6094 25.3747 24.5847 25.4343 24.5407 25.4782C24.4968 25.5222 24.4372 25.5469 24.375 25.5469H7.5C7.43784 25.5469 7.37823 25.5222 7.33427 25.4782C7.29032 25.4343 7.26562 25.3747 7.26562 25.3125V4.6875C7.26562 4.62534 7.29032 4.56573 7.33427 4.52177C7.37823 4.47782 7.43784 4.45312 7.5 4.45312H24.375C24.4372 4.45312 24.4968 4.47782 24.5407 4.52177C24.5847 4.56573 24.6094 4.62534 24.6094 4.6875V25.3125Z" fill="#AEAEAE"/>
</svg>
