<svg width="30" height="30" viewBox="0 0 30 30" fill="none" xmlns="http://www.w3.org/2000/svg">
<path d="M18.75 13.125C18.75 13.6813 18.5851 14.225 18.276 14.6875C17.967 15.1501 17.5277 15.5105 17.0138 15.7234C16.4999 15.9363 15.9344 15.992 15.3888 15.8835C14.8432 15.7749 14.3421 15.5071 13.9488 15.1137C13.5554 14.7204 13.2876 14.2193 13.179 13.6737C13.0705 13.1281 13.1262 12.5626 13.3391 12.0487C13.552 11.5348 13.9124 11.0955 14.375 10.7865C14.8375 10.4775 15.3812 10.3125 15.9375 10.3125C16.6834 10.3125 17.3988 10.6088 17.9262 11.1363C18.4537 11.6637 18.75 12.3791 18.75 13.125ZM26.25 4.6875V25.3125C26.25 25.8098 26.0525 26.2867 25.7008 26.6383C25.3492 26.99 24.8723 27.1875 24.375 27.1875H7.5C7.00272 27.1875 6.52581 26.99 6.17417 26.6383C5.82254 26.2867 5.625 25.8098 5.625 25.3125V22.5H3.75C3.50136 22.5 3.2629 22.4012 3.08709 22.2254C2.91127 22.0496 2.8125 21.8111 2.8125 21.5625C2.8125 21.3139 2.91127 21.0754 3.08709 20.8996C3.2629 20.7238 3.50136 20.625 3.75 20.625H5.625V15.9375H3.75C3.50136 15.9375 3.2629 15.8387 3.08709 15.6629C2.91127 15.4871 2.8125 15.2486 2.8125 15C2.8125 14.7514 2.91127 14.5129 3.08709 14.3371C3.2629 14.1613 3.50136 14.0625 3.75 14.0625H5.625V9.375H3.75C3.50136 9.375 3.2629 9.27623 3.08709 9.10041C2.91127 8.9246 2.8125 8.68614 2.8125 8.4375C2.8125 8.18886 2.91127 7.9504 3.08709 7.77459C3.2629 7.59877 3.50136 7.5 3.75 7.5H5.625V4.6875C5.625 4.19022 5.82254 3.71331 6.17417 3.36167C6.52581 3.01004 7.00272 2.8125 7.5 2.8125H24.375C24.8723 2.8125 25.3492 3.01004 25.7008 3.36167C26.0525 3.71331 26.25 4.19022 26.25 4.6875ZM22.3125 19.125C21.4824 18.012 20.3754 17.1357 19.1016 16.5832C19.7996 15.9459 20.2887 15.1124 20.5046 14.1921C20.7205 13.2718 20.6531 12.3078 20.3113 11.4265C19.9695 10.5452 19.3693 9.78785 18.5894 9.2538C17.8094 8.71975 16.8863 8.43397 15.941 8.43397C14.9958 8.43397 14.0726 8.71975 13.2927 9.2538C12.5127 9.78785 11.9125 10.5452 11.5707 11.4265C11.2289 12.3078 11.1615 13.2718 11.3774 14.1921C11.5933 15.1124 12.0824 15.9459 12.7805 16.5832C11.5041 17.1347 10.3946 18.0111 9.5625 19.125C9.48863 19.2235 9.43489 19.3356 9.40433 19.4548C9.37378 19.5741 9.36701 19.6982 9.38442 19.8201C9.40183 19.942 9.44308 20.0592 9.50581 20.1651C9.56853 20.2711 9.65151 20.3636 9.75 20.4375C9.84849 20.5114 9.96057 20.5651 10.0798 20.5957C10.1991 20.6262 10.3232 20.633 10.4451 20.6156C10.567 20.5982 10.6842 20.5569 10.7902 20.4942C10.8961 20.4315 10.9886 20.3485 11.0625 20.25C11.6301 19.4932 12.3661 18.8789 13.2123 18.4558C14.0584 18.0328 14.9915 17.8125 15.9375 17.8125C16.8835 17.8125 17.8166 18.0328 18.6627 18.4558C19.5089 18.8789 20.2449 19.4932 20.8125 20.25C20.9617 20.4489 21.1838 20.5804 21.4299 20.6156C21.6761 20.6507 21.9261 20.5867 22.125 20.4375C22.3239 20.2883 22.4554 20.0662 22.4906 19.8201C22.5257 19.5739 22.4617 19.3239 22.3125 19.125Z" fill="#C9A7EB"/>
</svg>
