<svg width="30" height="30" viewBox="0 0 30 30" fill="none" xmlns="http://www.w3.org/2000/svg">
<path d="M26.3156 12.1652C25.0113 11.4551 23.2582 10.9441 21.3281 10.7039V9.84375C21.3281 8.42344 20.2055 7.13672 18.1641 6.21914C16.3078 5.38242 13.8516 4.92188 11.25 4.92188C8.64844 4.92188 6.19219 5.38242 4.33594 6.21914C2.29453 7.13672 1.17188 8.42344 1.17188 9.84375V14.5312C1.17188 15.9516 2.29453 17.2383 4.33594 18.1559C5.56523 18.709 7.05586 19.0934 8.67188 19.2961V20.1562C8.67188 21.5766 9.79453 22.8633 11.8359 23.7809C13.6922 24.6176 16.1484 25.0781 18.75 25.0781C21.3516 25.0781 23.8078 24.6176 25.6641 23.7809C27.702 22.8633 28.8281 21.5766 28.8281 20.1562V15.4688C28.8281 14.2207 27.9363 13.0477 26.3156 12.1652ZM25.643 13.4004C26.7902 14.025 27.4219 14.7656 27.4219 15.4688C27.4219 17.1316 23.8605 18.9844 18.75 18.9844C17.919 18.9849 17.0888 18.9324 16.2645 18.8273C16.9141 18.6531 17.5492 18.4286 18.1641 18.1559C20.202 17.2383 21.3281 15.9516 21.3281 14.5312V12.1207C23.0156 12.3469 24.5273 12.7922 25.643 13.4004ZM12.675 17.9977C12.2156 18.0293 11.7375 18.0469 11.25 18.0469C10.6289 18.0469 10.0312 18.0188 9.45938 17.9684C9.44495 17.9672 9.43044 17.9672 9.41602 17.9684C8.99648 17.9297 8.5957 17.8781 8.20312 17.816V14.5453C9.212 14.6931 10.2304 14.7668 11.25 14.7656C12.2696 14.7668 13.288 14.6931 14.2969 14.5453V17.8125C13.7883 17.8934 13.2527 17.9555 12.6926 17.9953L12.675 17.9977ZM19.9219 12.409V14.5312C19.9219 15.6492 18.3105 16.8516 15.7031 17.5207V14.2793C16.5476 14.0887 17.3717 13.8171 18.1641 13.4684C18.7943 13.1946 19.3854 12.8384 19.9219 12.409ZM11.25 6.32812C16.3605 6.32812 19.9219 8.18086 19.9219 9.84375C19.9219 11.5066 16.3605 13.3594 11.25 13.3594C6.13945 13.3594 2.57812 11.5066 2.57812 9.84375C2.57812 8.18086 6.13945 6.32812 11.25 6.32812ZM2.57812 14.5312V12.409C3.11483 12.8368 3.70593 13.1914 4.33594 13.4637C5.1283 13.8124 5.95242 14.084 6.79688 14.2746V17.516C4.18945 16.8516 2.57812 15.6492 2.57812 14.5312ZM10.0781 20.1562V19.4203C10.4648 19.4414 10.8551 19.4531 11.25 19.4531C11.7117 19.4531 12.1672 19.4387 12.6164 19.4098C13.1661 19.6081 13.7272 19.7728 14.2969 19.9031V23.1457C11.6895 22.4766 10.0781 21.2742 10.0781 20.1562ZM15.7031 23.4375V20.168C16.7119 20.3166 17.7303 20.391 18.75 20.3906C19.7696 20.3918 20.788 20.3181 21.7969 20.1703V23.4375C19.7776 23.75 17.7224 23.75 15.7031 23.4375ZM23.2031 23.1457V19.9043C24.0476 19.7137 24.8717 19.4421 25.6641 19.0934C26.2941 18.8211 26.8852 18.4664 27.4219 18.0387V20.1562C27.4219 21.2742 25.8105 22.4766 23.2031 23.1457Z" fill="#AEAEAE"/>
</svg>
