<svg width="30" height="30" viewBox="0 0 30 30" fill="none" xmlns="http://www.w3.org/2000/svg">
<path d="M21.5625 10.4965V9.84375C21.5625 6.90469 17.1293 4.6875 11.25 4.6875C5.3707 4.6875 0.9375 6.90469 0.9375 9.84375V14.5312C0.9375 16.9793 4.01367 18.9246 8.4375 19.507V20.1562C8.4375 23.0953 12.8707 25.3125 18.75 25.3125C24.6293 25.3125 29.0625 23.0953 29.0625 20.1562V15.4688C29.0625 13.043 26.0836 11.0953 21.5625 10.4965ZM6.5625 17.2113C4.2668 16.5703 2.8125 15.5145 2.8125 14.5312V12.8824C3.76875 13.5598 5.04961 14.1059 6.5625 14.4727V17.2113ZM15.9375 14.4727C17.4504 14.1059 18.7313 13.5598 19.6875 12.8824V14.5312C19.6875 15.5145 18.2332 16.5703 15.9375 17.2113V14.4727ZM14.0625 22.8363C11.7668 22.1953 10.3125 21.1395 10.3125 20.1562V19.6676C10.6207 19.6793 10.9324 19.6875 11.25 19.6875C11.7047 19.6875 12.1488 19.6723 12.5848 19.6465C13.0691 19.8199 13.5623 19.9669 14.0625 20.0871V22.8363ZM14.0625 17.6074C13.1313 17.745 12.1913 17.8135 11.25 17.8125C10.3087 17.8135 9.36867 17.745 8.4375 17.6074V14.8195C9.37005 14.941 10.3096 15.0013 11.25 15C12.1904 15.0013 13.1299 14.941 14.0625 14.8195V17.6074ZM21.5625 23.2324C19.6975 23.5059 17.8025 23.5059 15.9375 23.2324V20.4375C16.8698 20.5628 17.8094 20.6255 18.75 20.625C19.6904 20.6263 20.6299 20.566 21.5625 20.4445V23.2324ZM27.1875 20.1562C27.1875 21.1395 25.7332 22.1953 23.4375 22.8363V20.0977C24.9504 19.7309 26.2313 19.1848 27.1875 18.5074V20.1562Z" fill="#C9A7EB"/>
</svg>
