<svg width="30" height="30" viewBox="0 0 30 30" fill="none" xmlns="http://www.w3.org/2000/svg">
<path d="M26.85 16.7169C26.529 16.4697 26.1552 16.3 25.7578 16.2211C25.3603 16.1422 24.9501 16.1563 24.559 16.2622L24.0527 16.3794C26.6016 14.0099 27.8906 11.6614 27.8906 9.3751C27.8906 6.40323 25.5012 3.98448 22.5633 3.98448C21.7347 3.97929 20.9164 4.16721 20.1731 4.53336C19.4298 4.8995 18.7821 5.43379 18.2812 6.09385C17.7804 5.43379 17.1327 4.8995 16.3894 4.53336C15.6461 4.16721 14.8278 3.97929 13.9992 3.98448C11.0613 3.98448 8.67187 6.40323 8.67187 9.3751C8.67187 10.7087 9.09727 12.0107 9.99492 13.4017C9.25911 13.5152 8.579 13.8614 8.0543 14.3896L5.33437 17.1095H1.875C1.43988 17.1095 1.02258 17.2823 0.714903 17.59C0.407226 17.8977 0.234375 18.315 0.234375 18.7501V23.4376C0.234375 23.8727 0.407226 24.29 0.714903 24.5977C1.02258 24.9054 1.43988 25.0782 1.875 25.0782H14.0625C14.1202 25.0782 14.1776 25.0712 14.2336 25.0571L21.7336 23.1821C21.7691 23.1727 21.8039 23.161 21.8379 23.147L26.3871 21.211L26.4258 21.1935C26.828 20.9926 27.1725 20.6926 27.4267 20.3218C27.681 19.951 27.8367 19.5216 27.8791 19.074C27.9216 18.6265 27.8494 18.1754 27.6693 17.7635C27.4893 17.3515 27.2073 16.9921 26.85 16.7192V16.7169ZM13.9992 5.39073C14.7725 5.38041 15.5313 5.60106 16.1784 6.02443C16.8256 6.4478 17.3317 7.05464 17.632 7.76729C17.685 7.89625 17.7751 8.00655 17.8909 8.08418C18.0067 8.16181 18.143 8.20325 18.2824 8.20325C18.4218 8.20325 18.5581 8.16181 18.6739 8.08418C18.7897 8.00655 18.8798 7.89625 18.9328 7.76729C19.2331 7.05464 19.7392 6.4478 20.3864 6.02443C21.0336 5.60106 21.7923 5.38041 22.5656 5.39073C24.6891 5.39073 26.4844 7.21534 26.4844 9.3751C26.4844 11.747 24.5883 14.4142 21 17.0802L19.2574 17.481C19.4312 17.0199 19.4906 16.5235 19.4304 16.0344C19.3703 15.5454 19.1924 15.0782 18.9121 14.6729C18.6317 14.2677 18.2573 13.9365 17.8209 13.7077C17.3844 13.479 16.899 13.3595 16.4062 13.3595H11.6801C10.5891 11.9146 10.0781 10.6419 10.0781 9.3751C10.0781 7.21534 11.8734 5.39073 13.9992 5.39073ZM1.64062 23.4376V18.7501C1.64062 18.6879 1.66532 18.6283 1.70927 18.5844C1.75323 18.5404 1.81284 18.5157 1.875 18.5157H4.92187V23.672H1.875C1.81284 23.672 1.75323 23.6473 1.70927 23.6033C1.66532 23.5594 1.64062 23.4998 1.64062 23.4376ZM25.8141 19.922L21.3375 21.8286L13.9758 23.672H6.32812V18.1044L9.04805 15.3833C9.2435 15.1868 9.476 15.0311 9.73207 14.9251C9.98814 14.819 10.2627 14.7649 10.5398 14.7657H16.4062C16.8414 14.7657 17.2587 14.9386 17.5663 15.2463C17.874 15.5539 18.0469 15.9712 18.0469 16.4064C18.0469 16.8415 17.874 17.2588 17.5663 17.5665C17.2587 17.8741 16.8414 18.047 16.4062 18.047H13.125C12.9385 18.047 12.7597 18.1211 12.6278 18.2529C12.496 18.3848 12.4219 18.5636 12.4219 18.7501C12.4219 18.9366 12.496 19.1154 12.6278 19.2473C12.7597 19.3792 12.9385 19.4532 13.125 19.4532H16.875C16.9278 19.4533 16.9805 19.4474 17.032 19.4357L24.8836 17.6298L24.9117 17.6228C25.2072 17.5422 25.5221 17.5737 25.7958 17.7111C26.0696 17.8485 26.2829 18.0823 26.3948 18.3674C26.5067 18.6525 26.5093 18.969 26.4021 19.2559C26.2949 19.5428 26.0855 19.78 25.8141 19.922Z" fill="#AEAEAE"/>
</svg>
