<svg width="30" height="30" viewBox="0 0 30 30" fill="none" xmlns="http://www.w3.org/2000/svg">
<g clip-path="url(#clip0_1034_7635)">
<path d="M26.9918 16.5305C26.6852 16.2942 26.3338 16.1228 25.9589 16.0267C25.5839 15.9306 25.1934 15.9118 24.8109 15.9715C27.0117 13.7496 28.125 11.5406 28.125 9.37499C28.125 6.27303 25.6301 3.74999 22.5633 3.74999C21.7495 3.74488 20.9445 3.91795 20.2048 4.25704C19.4651 4.59614 18.8085 5.09305 18.2812 5.71288C17.754 5.09305 17.0974 4.59614 16.3577 4.25704C15.618 3.91795 14.813 3.74488 13.9992 3.74999C10.9324 3.74999 8.4375 6.27303 8.4375 9.37499C8.4375 10.6641 8.81719 11.9168 9.61641 13.2422C8.96184 13.408 8.36448 13.7482 7.88789 14.2266L5.23711 16.875H1.875C1.37772 16.875 0.900806 17.0725 0.549175 17.4242C0.197544 17.7758 0 18.2527 0 18.75L0 23.4375C0 23.9348 0.197544 24.4117 0.549175 24.7633C0.900806 25.1149 1.37772 25.3125 1.875 25.3125H14.0625C14.1392 25.3125 14.2155 25.3031 14.2898 25.2844L21.7898 23.4094C21.8376 23.398 21.8843 23.3823 21.9293 23.3625L26.4844 21.4242L26.5359 21.4008C26.9737 21.182 27.3486 20.8554 27.6253 20.4517C27.9019 20.0481 28.0713 19.5806 28.1173 19.0934C28.1634 18.6062 28.0847 18.1152 27.8886 17.6669C27.6925 17.2185 27.3855 16.8274 26.9965 16.5305H26.9918ZM25.7145 19.7121L21.2613 21.6082L13.9453 23.4375H6.5625V18.2004L9.21445 15.5496C9.38793 15.3747 9.59444 15.2361 9.82197 15.1417C10.0495 15.0474 10.2935 14.9992 10.5398 15H16.4062C16.7792 15 17.1369 15.1481 17.4006 15.4119C17.6643 15.6756 17.8125 16.0333 17.8125 16.4062C17.8125 16.7792 17.6643 17.1369 17.4006 17.4006C17.1369 17.6643 16.7792 17.8125 16.4062 17.8125H13.125C12.8764 17.8125 12.6379 17.9113 12.4621 18.0871C12.2863 18.2629 12.1875 18.5013 12.1875 18.75C12.1875 18.9986 12.2863 19.2371 12.4621 19.4129C12.6379 19.5887 12.8764 19.6875 13.125 19.6875H16.875C16.9456 19.6873 17.0159 19.6794 17.0848 19.6641L24.9363 17.8582L24.9727 17.8488C25.2123 17.7823 25.4682 17.8067 25.6909 17.9175C25.9136 18.0282 26.0876 18.2174 26.1792 18.4487C26.2708 18.6799 26.2737 18.9369 26.1872 19.1701C26.1008 19.4034 25.9311 19.5964 25.7109 19.7121H25.7145Z" fill="#C9A7EB"/>
</g>
<defs>
<clipPath id="clip0_1034_7635">
<rect width="30" height="30" fill="white"/>
</clipPath>
</defs>
</svg>
