<svg width="30" height="30" viewBox="0 0 30 30" fill="none" xmlns="http://www.w3.org/2000/svg">
<path fill-rule="evenodd" clip-rule="evenodd" d="M15 4.78174C14.9414 4.78174 14.885 4.80366 14.8418 4.84319L14.8401 4.84477L5.47161 13.3583C5.44703 13.3824 5.42726 13.4109 5.41338 13.4424C5.39941 13.4741 5.39169 13.5082 5.39062 13.5428V24.3752C5.39062 24.4374 5.41532 24.497 5.45927 24.5409C5.50322 24.5849 5.56284 24.6096 5.625 24.6096H11.25C11.3122 24.6096 11.3718 24.5849 11.4157 24.5409C11.4597 24.497 11.4844 24.4374 11.4844 24.3752V18.7502C11.4844 18.3151 11.6572 17.8978 11.9649 17.5901C12.2726 17.2824 12.6899 17.1096 13.125 17.1096H16.875C17.3101 17.1096 17.7274 17.2824 18.0351 17.5901C18.3428 17.8978 18.5156 18.3151 18.5156 18.7502V24.3752C18.5156 24.4374 18.5403 24.497 18.5843 24.5409C18.6282 24.5849 18.6878 24.6096 18.75 24.6096H24.375C24.4372 24.6096 24.4968 24.5849 24.5407 24.5409C24.5847 24.497 24.6094 24.4374 24.6094 24.3752V13.5428C24.6083 13.5082 24.6006 13.4741 24.5866 13.4424C24.5727 13.4109 24.553 13.3824 24.5284 13.3583L15.1599 4.84477L15.1582 4.84319C15.115 4.80366 15.0586 4.78174 15 4.78174ZM13.8935 3.80476C14.1959 3.52862 14.5905 3.37549 15 3.37549C15.4095 3.37549 15.8041 3.52862 16.1065 3.80476C16.1068 3.80505 16.1071 3.80534 16.1074 3.80563L25.4807 12.3236L25.4906 12.3328C25.6531 12.4863 25.7833 12.6707 25.8735 12.8753C25.9636 13.0799 26.0119 13.3004 26.0155 13.524L26.0157 13.5353L26.0156 24.3752C26.0156 24.8103 25.8428 25.2276 25.5351 25.5353C25.2274 25.843 24.8101 26.0158 24.375 26.0158H18.75C18.3149 26.0158 17.8976 25.843 17.5899 25.5353C17.2822 25.2276 17.1094 24.8103 17.1094 24.3752V18.7502C17.1094 18.688 17.0847 18.6284 17.0407 18.5845C16.9968 18.5405 16.9372 18.5158 16.875 18.5158H13.125C13.0628 18.5158 13.0032 18.5405 12.9593 18.5845C12.9153 18.6284 12.8906 18.688 12.8906 18.7502V24.3752C12.8906 24.8103 12.7178 25.2276 12.4101 25.5353C12.1024 25.843 11.6851 26.0158 11.25 26.0158H5.625C5.18988 26.0158 4.77258 25.843 4.4649 25.5353C4.15723 25.2276 3.98438 24.8103 3.98438 24.3752V13.524C3.98799 13.3004 4.03639 13.0799 4.12654 12.8753C4.2167 12.6707 4.34688 12.4863 4.50941 12.3328L4.51931 12.3236L13.8926 3.80563C13.8929 3.80534 13.8932 3.80505 13.8935 3.80476Z" fill="#AEAEAE"/>
</svg>
