<svg width="30" height="30" viewBox="0 0 30 30" fill="none" xmlns="http://www.w3.org/2000/svg">
<path fill-rule="evenodd" clip-rule="evenodd" d="M14.7752 12.4427C16.2602 12.4427 17.464 11.2388 17.464 9.75384C17.464 8.26883 16.2602 7.06499 14.7752 7.06499C13.2902 7.06499 12.0863 8.26883 12.0863 9.75384C12.0863 11.2388 13.2902 12.4427 14.7752 12.4427ZM19.0207 9.75384C19.0207 12.0986 17.1199 13.9994 14.7752 13.9994C12.4304 13.9994 10.5297 12.0986 10.5297 9.75384C10.5297 7.40909 12.4305 5.5083 14.7752 5.5083C17.1199 5.5083 19.0207 7.40909 19.0207 9.75384Z" fill="#AEAEAE"/>
<path fill-rule="evenodd" clip-rule="evenodd" d="M14.7758 16.6343C10.9077 16.6343 8.1192 19.0855 8.1192 22.5821C8.1192 22.8195 8.13161 23.0536 8.15572 23.2839C10.0318 24.1658 12.3048 24.693 14.7758 24.693C17.2468 24.693 19.5201 24.1658 21.3958 23.2839C21.4199 23.0536 21.4324 22.8195 21.4324 22.5821C21.4324 19.0855 18.6438 16.6343 14.7758 16.6343ZM22.8057 24.3144C20.5704 25.5296 17.7895 26.2497 14.7758 26.2497C11.7621 26.2497 8.98153 25.5296 6.74581 24.3144C6.62579 23.7561 6.5625 23.1764 6.5625 22.5821C6.5625 18.0459 10.2396 15.0776 14.7758 15.0776C19.312 15.0776 22.9891 18.0459 22.9891 22.5821C22.9891 23.1764 22.9258 23.7561 22.8057 24.3144Z" fill="#AEAEAE"/>
</svg>
