<svg width="30" height="30" viewBox="0 0 30 30" fill="none" xmlns="http://www.w3.org/2000/svg">
<path d="M14.7752 13.9996C17.1199 13.9996 19.0207 12.0988 19.0207 9.75408C19.0207 7.40934 17.1199 5.50854 14.7752 5.50854C12.4305 5.50854 10.5297 7.40934 10.5297 9.75408C10.5297 12.0988 12.4304 13.9996 14.7752 13.9996Z" fill="#C9A7EB"/>
<path d="M14.7758 15.0779C10.2396 15.0779 6.5625 18.0461 6.5625 22.5823C6.5625 23.1766 6.62579 23.7564 6.74581 24.3147C8.98153 25.5298 11.7621 26.25 14.7758 26.25C17.7895 26.25 20.5704 25.5298 22.8058 24.3147C22.9258 23.7564 22.9891 23.1766 22.9891 22.5823C22.9891 18.0461 19.312 15.0779 14.7758 15.0779Z" fill="#C9A7EB"/>
</svg>
