<svg width="21" height="20" viewBox="0 0 21 20" fill="none" xmlns="http://www.w3.org/2000/svg">
<path opacity="0.6" d="M20.5436 5.99454L14.7747 0.225594C14.7032 0.154077 14.6184 0.0973421 14.525 0.058633C14.4316 0.019924 14.3315 0 14.2305 0C14.1294 0 14.0293 0.019924 13.9359 0.058633C13.8425 0.0973421 13.7577 0.154077 13.6862 0.225594L1.2609 12.6509C0.453559 13.4583 0 14.5533 0 15.695C0 16.8368 0.453559 17.9318 1.2609 18.7391C2.06824 19.5464 3.16323 20 4.30498 20C5.44673 20 6.54172 19.5464 7.34906 18.7391L18.1072 7.98098L20.2427 7.26948C20.3671 7.22808 20.4789 7.15553 20.5675 7.05873C20.656 6.96193 20.7183 6.8441 20.7485 6.71643C20.7786 6.58877 20.7756 6.45551 20.7398 6.32933C20.7039 6.20314 20.6364 6.08823 20.5436 5.9955V5.99454ZM17.4486 6.57817C17.3352 6.61581 17.2322 6.67935 17.1476 6.76373L13.343 10.5684C12.5286 10.8472 11.2518 10.9529 9.58645 10.0876C8.56727 9.55494 7.64616 9.31841 6.84043 9.24823L14.2305 1.85724L18.5754 6.20222L17.4486 6.57817Z" fill="#469946"/>
</svg>
